<svg width="27" height="30" viewBox="0 0 27 30" fill="none" xmlns="http://www.w3.org/2000/svg">
<path d="M21.2637 0H4.21926L0 4.66667V4.7V29.6667C0 29.8333 0.167431 30 0.334862 30H17.4128C19.6229 30 21.4312 28.2 21.4312 26V25.3333V23.3333V8.66667C21.4312 6.46667 19.6229 4.66667 17.4128 4.66667H2.67889L5.0899 2H21.2302C22.8041 2 24.0431 3.2 24.0431 4.66667V20.6667C24.0431 20.7333 24.0431 20.8333 24.0431 20.9V24.4667C25.2821 23.6333 26.0523 22.2333 26.0523 20.6667V4.66667C26.0857 2.1 23.9091 0 21.2637 0ZM1.97568 6.66667H17.3793C18.4844 6.66667 19.3885 7.56667 19.3885 8.66667V26C19.3885 27.1 18.4844 28 17.3793 28H1.97568V6.66667Z" fill="#5FCFDD"/>
</svg>
