<svg width="149" height="35" viewBox="0 0 149 35" fill="none" xmlns="http://www.w3.org/2000/svg">
<path d="M39.5806 17.12V15.992H42.2926C42.8526 15.992 43.3566 15.896 43.8046 15.704C44.2526 15.512 44.6046 15.232 44.8606 14.864C45.1166 14.496 45.2446 14.048 45.2446 13.52C45.2446 12.72 44.9646 12.104 44.4046 11.672C43.8446 11.224 43.1406 11 42.2926 11H40.0126V24.2H42.5326C43.2526 24.2 43.8846 24.072 44.4286 23.816C44.9886 23.56 45.4206 23.192 45.7246 22.712C46.0446 22.232 46.2046 21.648 46.2046 20.96C46.2046 20.448 46.1166 19.992 45.9406 19.592C45.7646 19.192 45.5086 18.856 45.1726 18.584C44.8526 18.312 44.4686 18.112 44.0206 17.984C43.5726 17.84 43.0766 17.768 42.5326 17.768H39.5806V16.64H42.5326C43.3486 16.64 44.1006 16.728 44.7886 16.904C45.4766 17.08 46.0766 17.352 46.5886 17.72C47.1166 18.072 47.5246 18.528 47.8126 19.088C48.1006 19.648 48.2446 20.312 48.2446 21.08C48.2446 22.184 47.9886 23.104 47.4766 23.84C46.9806 24.56 46.3006 25.104 45.4366 25.472C44.5886 25.824 43.6206 26 42.5326 26H37.9726V9.2H42.2926C43.3006 9.2 44.1726 9.352 44.9086 9.656C45.6606 9.96 46.2446 10.424 46.6606 11.048C47.0766 11.656 47.2846 12.44 47.2846 13.4C47.2846 14.184 47.0766 14.856 46.6606 15.416C46.2446 15.976 45.6606 16.4 44.9086 16.688C44.1726 16.976 43.3006 17.12 42.2926 17.12H39.5806ZM50.2754 20.48C50.2754 19.36 50.5234 18.368 51.0194 17.504C51.5314 16.64 52.2194 15.96 53.0834 15.464C53.9474 14.968 54.9154 14.72 55.9874 14.72C57.0754 14.72 58.0434 14.968 58.8914 15.464C59.7554 15.96 60.4354 16.64 60.9314 17.504C61.4434 18.368 61.6994 19.36 61.6994 20.48C61.6994 21.584 61.4434 22.576 60.9314 23.456C60.4354 24.32 59.7554 25 58.8914 25.496C58.0434 25.992 57.0754 26.24 55.9874 26.24C54.9154 26.24 53.9474 25.992 53.0834 25.496C52.2194 25 51.5314 24.32 51.0194 23.456C50.5234 22.576 50.2754 21.584 50.2754 20.48ZM52.2194 20.48C52.2194 21.248 52.3794 21.928 52.6994 22.52C53.0354 23.112 53.4834 23.584 54.0434 23.936C54.6194 24.272 55.2674 24.44 55.9874 24.44C56.7074 24.44 57.3474 24.272 57.9074 23.936C58.4834 23.584 58.9314 23.112 59.2514 22.52C59.5874 21.928 59.7554 21.248 59.7554 20.48C59.7554 19.712 59.5874 19.032 59.2514 18.44C58.9314 17.832 58.4834 17.36 57.9074 17.024C57.3474 16.688 56.7074 16.52 55.9874 16.52C55.2674 16.52 54.6194 16.688 54.0434 17.024C53.4834 17.36 53.0354 17.832 52.6994 18.44C52.3794 19.032 52.2194 19.712 52.2194 20.48ZM63.377 20.48C63.377 19.36 63.625 18.368 64.121 17.504C64.633 16.64 65.321 15.96 66.185 15.464C67.049 14.968 68.017 14.72 69.089 14.72C70.177 14.72 71.145 14.968 71.993 15.464C72.857 15.96 73.537 16.64 74.033 17.504C74.545 18.368 74.801 19.36 74.801 20.48C74.801 21.584 74.545 22.576 74.033 23.456C73.537 24.32 72.857 25 71.993 25.496C71.145 25.992 70.177 26.24 69.089 26.24C68.017 26.24 67.049 25.992 66.185 25.496C65.321 25 64.633 24.32 64.121 23.456C63.625 22.576 63.377 21.584 63.377 20.48ZM65.321 20.48C65.321 21.248 65.481 21.928 65.801 22.52C66.137 23.112 66.585 23.584 67.145 23.936C67.721 24.272 68.369 24.44 69.089 24.44C69.809 24.44 70.449 24.272 71.009 23.936C71.585 23.584 72.033 23.112 72.353 22.52C72.689 21.928 72.857 21.248 72.857 20.48C72.857 19.712 72.689 19.032 72.353 18.44C72.033 17.832 71.585 17.36 71.009 17.024C70.449 16.688 69.809 16.52 69.089 16.52C68.369 16.52 67.721 16.688 67.145 17.024C66.585 17.36 66.137 17.832 65.801 18.44C65.481 19.032 65.321 19.712 65.321 20.48ZM77.3186 7.28H79.2386V26H77.3186V7.28ZM83.3186 14.96H85.7186L80.9186 19.52L86.1986 26H83.7986L78.5186 19.52L83.3186 14.96ZM95.3242 9.2H97.3642V24.08H103.964V26H95.3242V9.2ZM105.049 20.48C105.049 19.36 105.297 18.368 105.793 17.504C106.305 16.64 106.993 15.96 107.857 15.464C108.721 14.968 109.689 14.72 110.761 14.72C111.849 14.72 112.817 14.968 113.665 15.464C114.529 15.96 115.209 16.64 115.705 17.504C116.217 18.368 116.473 19.36 116.473 20.48C116.473 21.584 116.217 22.576 115.705 23.456C115.209 24.32 114.529 25 113.665 25.496C112.817 25.992 111.849 26.24 110.761 26.24C109.689 26.24 108.721 25.992 107.857 25.496C106.993 25 106.305 24.32 105.793 23.456C105.297 22.576 105.049 21.584 105.049 20.48ZM106.993 20.48C106.993 21.248 107.153 21.928 107.473 22.52C107.809 23.112 108.257 23.584 108.817 23.936C109.393 24.272 110.041 24.44 110.761 24.44C111.481 24.44 112.121 24.272 112.681 23.936C113.257 23.584 113.705 23.112 114.025 22.52C114.361 21.928 114.529 21.248 114.529 20.48C114.529 19.712 114.361 19.032 114.025 18.44C113.705 17.832 113.257 17.36 112.681 17.024C112.121 16.688 111.481 16.52 110.761 16.52C110.041 16.52 109.393 16.688 108.817 17.024C108.257 17.36 107.809 17.832 107.473 18.44C107.153 19.032 106.993 19.712 106.993 20.48ZM116.959 14.96H119.119L122.239 22.76L125.359 14.96H127.519L122.239 26.84L116.959 14.96ZM133.25 26.24C132.226 26.24 131.314 26 130.514 25.52C129.73 25.024 129.114 24.344 128.666 23.48C128.234 22.616 128.018 21.616 128.018 20.48C128.018 19.328 128.242 18.32 128.69 17.456C129.154 16.592 129.794 15.92 130.61 15.44C131.442 14.96 132.402 14.72 133.49 14.72C134.578 14.72 135.506 14.952 136.274 15.416C137.058 15.864 137.658 16.512 138.074 17.36C138.49 18.208 138.698 19.216 138.698 20.384C138.698 20.496 138.69 20.616 138.674 20.744C138.674 20.856 138.674 20.928 138.674 20.96H129.242V19.328H137.162L136.394 20.432C136.442 20.352 136.49 20.232 136.538 20.072C136.586 19.896 136.61 19.752 136.61 19.64C136.61 18.984 136.474 18.416 136.202 17.936C135.946 17.456 135.586 17.08 135.122 16.808C134.658 16.536 134.114 16.4 133.49 16.4C132.754 16.4 132.122 16.56 131.594 16.88C131.082 17.184 130.682 17.632 130.394 18.224C130.122 18.8 129.978 19.512 129.962 20.36C129.962 21.224 130.098 21.96 130.37 22.568C130.642 23.176 131.042 23.64 131.57 23.96C132.098 24.28 132.738 24.44 133.49 24.44C134.242 24.44 134.906 24.28 135.482 23.96C136.058 23.624 136.546 23.12 136.946 22.448L138.506 23.432C137.93 24.36 137.202 25.064 136.322 25.544C135.458 26.008 134.434 26.24 133.25 26.24ZM143.249 14.96V26H141.329V14.96H143.249ZM146.585 17.072C146.329 16.88 146.097 16.744 145.889 16.664C145.681 16.568 145.417 16.52 145.097 16.52C144.617 16.52 144.241 16.64 143.969 16.88C143.697 17.12 143.505 17.448 143.393 17.864C143.297 18.28 143.249 18.752 143.249 19.28H142.385C142.385 18.4 142.537 17.624 142.841 16.952C143.161 16.264 143.569 15.72 144.065 15.32C144.561 14.92 145.065 14.72 145.577 14.72C145.977 14.72 146.345 14.776 146.681 14.888C147.033 14.984 147.353 15.184 147.641 15.488L146.585 17.072Z" fill="black"/>
<path d="M21.2637 3H4.21926L0 7.66667V7.7V32.6667C0 32.8333 0.167431 33 0.334862 33H17.4128C19.6229 33 21.4312 31.2 21.4312 29V28.3333V26.3333V11.6667C21.4312 9.46667 19.6229 7.66667 17.4128 7.66667H2.67889L5.0899 5H21.2302C22.8041 5 24.0431 6.2 24.0431 7.66667V23.6667C24.0431 23.7333 24.0431 23.8333 24.0431 23.9V27.4667C25.2821 26.6333 26.0523 25.2333 26.0523 23.6667V7.66667C26.0857 5.1 23.9091 3 21.2637 3ZM1.97568 9.66667H17.3793C18.4844 9.66667 19.3885 10.5667 19.3885 11.6667V29C19.3885 30.1 18.4844 31 17.3793 31H1.97568V9.66667Z" fill="#5FCFDD"/>
</svg>
