<svg width="17" height="20" viewBox="0 0 17 20" fill="none" xmlns="http://www.w3.org/2000/svg">
<path d="M14.272 19.4197L15.2343 6.29469C15.2471 6.12156 15.1852 5.95125 15.0639 5.82438C14.9427 5.6975 14.7724 5.625 14.5944 5.625H2.40567C2.22765 5.625 2.05765 5.69719 1.93609 5.82406C1.81452 5.95094 1.75294 6.12156 1.76577 6.29437L2.72803 19.4194C2.75209 19.7466 3.03147 20 3.36794 20H13.6321C13.9686 20 14.2479 19.7466 14.272 19.4197Z" fill="black"/>
<path d="M17 4.375C17 2.50563 15.0928 2.1875 13.3113 2.1875H11.4689C11.2052 1.07219 10.2824 0 9.14151 0H7.85849C6.71757 0 5.79508 1.07219 5.53109 2.1875H3.68868C1.90721 2.1875 0 2.50563 0 4.375C0 4.72 0.287396 5 0.641509 5H16.3585C16.7126 5 17 4.72 17 4.375Z" fill="black"/>
</svg>
